<svg width="80" height="80" viewBox="0 0 80 80" fill="none" xmlns="http://www.w3.org/2000/svg">
  <rect width="80" height="80" rx="40" fill="url(#gradient2)"/>
  <path d="M40 36C44.4183 36 48 32.4183 48 28C48 23.5817 44.4183 20 40 20C35.5817 20 32 23.5817 32 28C32 32.4183 35.5817 36 40 36Z" fill="#8B7355"/>
  <path d="M40 36C39.2 36 38.4 35.8667 37.6667 35.6C36.5333 37.3333 35.3333 39.3333 35.3333 41.3333V44H44.6667V41.3333C44.6667 39.3333 43.4667 37.3333 42.3333 35.6C41.6 35.8667 40.8 36 40 36Z" fill="#6B5638"/>
  <path d="M52 60C52 52.2667 46.6 46 40 46C33.4 46 28 52.2667 28 60H52Z" fill="#1E40AF"/>
  <path d="M35 23C35 23 34 19 32 18C30 17 28 18 28 20C28 22 29 23 30 23.5C31 24 32.5 24 33.5 23.5C34.5 23 35 23 35 23Z" fill="#1A202C"/>
  <path d="M45 23C45 23 46 19 48 18C50 17 52 18 52 20C52 22 51 23 50 23.5C49 24 47.5 24 46.5 23.5C45.5 23 45 23 45 23Z" fill="#1A202C"/>
  <path d="M40 28C40 28 39 18 40 17C41 16 41 17 41 18C41 19 40 28 40 28Z" fill="#1A202C"/>
  <defs>
    <linearGradient id="gradient2" x1="0" y1="0" x2="80" y2="80" gradientUnits="userSpaceOnUse">
      <stop stop-color="#FEF3C7"/>
      <stop offset="1" stop-color="#FDE68A"/>
    </linearGradient>
  </defs>
</svg>