<svg width="80" height="80" viewBox="0 0 80 80" fill="none" xmlns="http://www.w3.org/2000/svg">
  <rect width="80" height="80" rx="40" fill="url(#gradient1)"/>
  <path d="M40 36C44.4183 36 48 32.4183 48 28C48 23.5817 44.4183 20 40 20C35.5817 20 32 23.5817 32 28C32 32.4183 35.5817 36 40 36Z" fill="#FDB797"/>
  <path d="M40 36C39.2 36 38.4 35.8667 37.6667 35.6C36.5333 37.3333 35.3333 39.3333 35.3333 41.3333V44H44.6667V41.3333C44.6667 39.3333 43.4667 37.3333 42.3333 35.6C41.6 35.8667 40.8 36 40 36Z" fill="#F79E70"/>
  <path d="M52 60C52 52.2667 46.6 46 40 46C33.4 46 28 52.2667 28 60H52Z" fill="#4A5568"/>
  <path d="M38 20.5C38 18.5 36.5 17 34.5 17C33.5 17 32.5 17.5 32 18.5C32.5 19 33 19.5 33.5 20C34 20.5 34.5 21 35 21.5C35.5 22 36 22.5 36.5 23C37 23.5 37.5 24 38 24.5V20.5Z" fill="#2D3748"/>
  <path d="M42 20.5V24.5C42.5 24 43 23.5 43.5 23C44 22.5 44.5 22 45 21.5C45.5 21 46 20.5 46.5 20C47 19.5 47.5 19 48 18.5C47.5 17.5 46.5 17 45.5 17C43.5 17 42 18.5 42 20.5Z" fill="#2D3748"/>
  <defs>
    <linearGradient id="gradient1" x1="0" y1="0" x2="80" y2="80" gradientUnits="userSpaceOnUse">
      <stop stop-color="#E0F2FE"/>
      <stop offset="1" stop-color="#DBEAFE"/>
    </linearGradient>
  </defs>
</svg>