<svg width="80" height="80" viewBox="0 0 80 80" fill="none" xmlns="http://www.w3.org/2000/svg">
  <rect width="80" height="80" rx="40" fill="url(#gradient4)"/>
  <path d="M40 36C44.4183 36 48 32.4183 48 28C48 23.5817 44.4183 20 40 20C35.5817 20 32 23.5817 32 28C32 32.4183 35.5817 36 40 36Z" fill="#6B4C2A"/>
  <path d="M40 36C39.2 36 38.4 35.8667 37.6667 35.6C36.5333 37.3333 35.3333 39.3333 35.3333 41.3333V44H44.6667V41.3333C44.6667 39.3333 43.4667 37.3333 42.3333 35.6C41.6 35.8667 40.8 36 40 36Z" fill="#4A3419"/>
  <path d="M52 60C52 52.2667 46.6 46 40 46C33.4 46 28 52.2667 28 60H52Z" fill="#7C3AED"/>
  <path d="M35 22C35 22 33 18 30 17C27 16 24 17 24 20C24 23 26 25 29 25.5C32 26 34.5 25 35 24C35.5 23 35 22 35 22Z" fill="#374151"/>
  <path d="M45 22C45 22 47 18 50 17C53 16 56 17 56 20C56 23 54 25 51 25.5C48 26 45.5 25 45 24C44.5 23 45 22 45 22Z" fill="#374151"/>
  <circle cx="35" cy="28" r="1.5" fill="#1F2937"/>
  <circle cx="45" cy="28" r="1.5" fill="#1F2937"/>
  <path d="M35 33C35 33 37 35 40 35C43 35 45 33 45 33" stroke="#1F2937" stroke-width="1.5" stroke-linecap="round"/>
  <defs>
    <linearGradient id="gradient4" x1="0" y1="0" x2="80" y2="80" gradientUnits="userSpaceOnUse">
      <stop stop-color="#EDE9FE"/>
      <stop offset="1" stop-color="#DDD6FE"/>
    </linearGradient>
  </defs>
</svg>