<svg width="80" height="80" viewBox="0 0 80 80" fill="none" xmlns="http://www.w3.org/2000/svg">
  <rect width="80" height="80" rx="40" fill="url(#gradient3)"/>
  <path d="M40 36C44.4183 36 48 32.4183 48 28C48 23.5817 44.4183 20 40 20C35.5817 20 32 23.5817 32 28C32 32.4183 35.5817 36 40 36Z" fill="#FDB797"/>
  <path d="M40 36C39.2 36 38.4 35.8667 37.6667 35.6C36.5333 37.3333 35.3333 39.3333 35.3333 41.3333V44H44.6667V41.3333C44.6667 39.3333 43.4667 37.3333 42.3333 35.6C41.6 35.8667 40.8 36 40 36Z" fill="#F79E70"/>
  <path d="M52 60C52 52.2667 46.6 46 40 46C33.4 46 28 52.2667 28 60H52Z" fill="#059669"/>
  <path d="M32 24C32 22 33 20 35 19C37 18 39 18 40 18C41 18 43 18 45 19C47 20 48 22 48 24C48 26 47 27 46 27.5C45 28 44 28 43 27.5C42 27 41 26.5 40 26.5C39 26.5 38 27 37 27.5C36 28 35 28 34 27.5C33 27 32 26 32 24Z" fill="#F59E0B"/>
  <path d="M34 32C34 32 36 34 40 34C44 34 46 32 46 32" stroke="#1F2937" stroke-width="1.5" stroke-linecap="round"/>
  <defs>
    <linearGradient id="gradient3" x1="0" y1="0" x2="80" y2="80" gradientUnits="userSpaceOnUse">
      <stop stop-color="#D1FAE5"/>
      <stop offset="1" stop-color="#A7F3D0"/>
    </linearGradient>
  </defs>
</svg>